<?xml version="1.0" encoding="UTF-8"?>
<svg width="40px" height="40px" viewBox="0 0 40 40" version="1.1" xmlns="http://www.w3.org/2000/svg" xmlns:xlink="http://www.w3.org/1999/xlink">
    <!-- Generator: sketchtool 63.1 (101010) - https://sketch.com -->
    <title>96911F9F-0C31-4D24-9E23-5BF59E95C6E4</title>
    <desc>Created with sketchtool.</desc>
    <g id="START" stroke="none" stroke-width="1" fill="none" fill-rule="evenodd">
        <g id="Startseite_1440_Desktop-Alt" transform="translate(-1171.000000, -1709.000000)" fill="#FFFFFF">
            <g id="Footer_Desktop" transform="translate(0.000000, 1685.000000)">
                <g id="Group-4">
                    <g id="sm" transform="translate(1171.000000, 24.000000)">
                        <path d="M20,0 C31.045695,0 40,8.954305 40,20 C40,31.045695 31.045695,40 20,40 C8.954305,40 0,31.045695 0,20 C0,8.954305 8.954305,0 20,0 Z M14.8738352,14.830608 L10.2720318,14.830608 L10.2720318,29 L14.8738352,29 L14.8738352,14.830608 Z M26.6310674,14.5625 L26.3668739,14.5678251 C24.1232752,14.6593904 23.0682676,15.9125947 22.4648186,16.8345027 L22.4648186,16.8345027 L22.428,16.89 L22.4282904,14.8935185 L17.7647059,14.8935185 L17.7677191,14.9705808 C17.8220272,16.5890178 17.7686555,28.160752 17.7649101,28.9568782 L17.7647059,29 L22.4281658,29 L22.4281658,21.1223437 L22.430981,20.9121312 C22.4408473,20.5636774 22.4789976,20.2293311 22.5816161,19.97818 C22.9187417,19.1358151 23.6860761,18.2633956 24.9743774,18.2633956 C26.6618737,18.2633956 27.3369137,19.5569976 27.3369137,21.4533622 L27.3369137,21.4533622 L27.3369137,29 L32,29 L32,20.9115437 L31.9964528,20.6197066 C31.8950256,16.4880633 29.6295517,14.5625 26.6310674,14.5625 L26.6310674,14.5625 Z M12.6033527,8 C11.0292144,8 10,9.05786164 10,10.448218 C10,11.8079665 10.9986108,12.8960168 12.542924,12.8960168 L12.542924,12.8960168 L12.5728311,12.8960168 L12.7625485,12.8908464 C14.2559621,12.808538 15.1764706,11.7535765 15.1764706,10.448218 C15.1465635,9.05786164 14.177655,8 12.6033527,8 Z" id="Combined-Shape"></path>
                    </g>
                </g>
            </g>
        </g>
    </g>
</svg>