<?xml version="1.0" encoding="UTF-8"?>
<svg width="40px" height="40px" viewBox="0 0 40 40" version="1.1" xmlns="http://www.w3.org/2000/svg" xmlns:xlink="http://www.w3.org/1999/xlink">
    <!-- Generator: sketchtool 63.1 (101010) - https://sketch.com -->
    <title>432C9339-1D60-4B90-905D-66BC02942966</title>
    <desc>Created with sketchtool.</desc>
    <g id="START" stroke="none" stroke-width="1" fill="none" fill-rule="evenodd">
        <g id="Startseite_1440_Desktop-Alt" transform="translate(-1235.000000, -1709.000000)" fill="#FFFFFF">
            <g id="Footer_Desktop" transform="translate(0.000000, 1685.000000)">
                <g id="Group-4">
                    <g id="sm" transform="translate(1171.000000, 24.000000)">
                        <g id="fb" transform="translate(64.000000, 0.000000)">
                            <path d="M20,0 C31.045695,0 40,8.954305 40,20 C40,31.045695 31.045695,40 20,40 C8.954305,40 0,31.045695 0,20 C0,8.954305 8.954305,0 20,0 Z M29.4323829,7 L25.6660376,7 L25.5332634,7.00743207 C25.069344,7.06117369 24.8511485,7.39795085 24.6678773,7.74180939 C24.6678773,7.74180939 16.6360596,22.6188604 16.3716723,23.1073571 C16.3852764,23.1339133 21.6691744,33.2584846 21.6691744,33.2584846 C21.8540015,33.603519 22.1394984,34 22.7105861,34 L22.7105861,34 L26.4345244,34 L26.5425852,33.9927036 C26.715372,33.9685115 26.8503698,33.8848089 26.9293357,33.751293 C27.0285044,33.5849983 27.0259712,33.3653953 26.9218301,33.149614 L26.9218301,33.149614 L21.6657968,23.1196063 L21.6619948,23.1067692 L21.6619948,23.1067692 L21.6657968,23.093932 L29.9204391,7.84960204 L29.9637687,7.74198769 C30.0219637,7.56288449 30.0100537,7.38728591 29.9280386,7.24870703 C29.8330919,7.08848796 29.6568963,7 29.4323829,7 L29.4323829,7 Z M13.7315528,12.3324042 L10.0033926,12.3324042 L9.89433016,12.339247 C9.71841167,12.3620281 9.5740057,12.4415524 9.49488343,12.5757216 C9.39665297,12.7421143 9.41185195,12.9563276 9.51618077,13.1730889 L9.51618077,13.1730889 L12.0369601,17.7308559 L12.0401266,17.7422966 L12.0401266,17.7422966 L12.0369601,17.7530024 L8.07565501,25.0542883 L8.03292742,25.161669 C7.97654368,25.3399715 7.99371811,25.5130113 8.07565501,25.6517535 C8.17060174,25.8118746 8.33835347,25.9173154 8.56286683,25.9173154 L8.56286683,25.9173154 L12.2910271,25.9173154 L12.4245037,25.9093757 C12.8927525,25.852056 13.1331007,25.4944089 13.3078577,25.1649227 C13.3078577,25.1649227 17.1818156,18.008765 17.3327734,17.7308559 C17.3173868,17.7051817 14.769587,13.0624544 14.769587,13.0624544 C14.5839155,12.717322 14.3034849,12.3324042 13.7315528,12.3324042 L13.7315528,12.3324042 Z" id="Combined-Shape"></path>
                        </g>
                    </g>
                </g>
            </g>
        </g>
    </g>
</svg>